<mxfile host="app.diagrams.net" modified="2023-09-24T14:50:37.181Z" agent="Mozilla/5.0 (Windows NT 10.0; Win64; x64) AppleWebKit/537.36 (KHTML, like Gecko) Chrome/116.0.0.0 Safari/537.36" etag="kI1nTPYNcCjCo0KXwFNZ" version="21.6.8" type="device">
  <diagram id="C5RBs43oDa-KdzZeNtuy" name="Page-1">
    <mxGraphModel dx="2074" dy="1118" grid="1" gridSize="10" guides="1" tooltips="1" connect="1" arrows="1" fold="1" page="1" pageScale="1" pageWidth="827" pageHeight="1169" math="0" shadow="0">
      <root>
        <mxCell id="WIyWlLk6GJQsqaUBKTNV-0" />
        <mxCell id="WIyWlLk6GJQsqaUBKTNV-1" parent="WIyWlLk6GJQsqaUBKTNV-0" />
        <mxCell id="6BlWa93xbq6rNMp9vf55-7" style="edgeStyle=orthogonalEdgeStyle;rounded=0;orthogonalLoop=1;jettySize=auto;html=1;entryX=0.5;entryY=0;entryDx=0;entryDy=0;" edge="1" parent="WIyWlLk6GJQsqaUBKTNV-1" source="6BlWa93xbq6rNMp9vf55-0" target="6BlWa93xbq6rNMp9vf55-5">
          <mxGeometry relative="1" as="geometry" />
        </mxCell>
        <mxCell id="6BlWa93xbq6rNMp9vf55-8" style="edgeStyle=orthogonalEdgeStyle;rounded=0;orthogonalLoop=1;jettySize=auto;html=1;" edge="1" parent="WIyWlLk6GJQsqaUBKTNV-1" source="6BlWa93xbq6rNMp9vf55-0" target="6BlWa93xbq6rNMp9vf55-6">
          <mxGeometry relative="1" as="geometry" />
        </mxCell>
        <mxCell id="6BlWa93xbq6rNMp9vf55-0" value="AbsHandler" style="swimlane;fontStyle=0;childLayout=stackLayout;horizontal=1;startSize=20;horizontalStack=0;resizeParent=1;resizeParentMax=0;resizeLast=0;collapsible=1;marginBottom=0;whiteSpace=wrap;html=1;" vertex="1" parent="WIyWlLk6GJQsqaUBKTNV-1">
          <mxGeometry x="230" y="110" width="140" height="60" as="geometry" />
        </mxCell>
        <mxCell id="6BlWa93xbq6rNMp9vf55-5" value="WIFIHandler" style="swimlane;fontStyle=0;childLayout=stackLayout;horizontal=1;startSize=20;horizontalStack=0;resizeParent=1;resizeParentMax=0;resizeLast=0;collapsible=1;marginBottom=0;whiteSpace=wrap;html=1;fillColor=#f8cecc;strokeColor=#b85450;" vertex="1" parent="WIyWlLk6GJQsqaUBKTNV-1">
          <mxGeometry x="60" y="190" width="140" height="60" as="geometry" />
        </mxCell>
        <mxCell id="6BlWa93xbq6rNMp9vf55-6" value="SerialHandler" style="swimlane;fontStyle=0;childLayout=stackLayout;horizontal=1;startSize=20;horizontalStack=0;resizeParent=1;resizeParentMax=0;resizeLast=0;collapsible=1;marginBottom=0;whiteSpace=wrap;html=1;" vertex="1" parent="WIyWlLk6GJQsqaUBKTNV-1">
          <mxGeometry x="414" y="190" width="140" height="60" as="geometry" />
        </mxCell>
        <mxCell id="6BlWa93xbq6rNMp9vf55-9" value="CommandHandler" style="swimlane;fontStyle=0;childLayout=stackLayout;horizontal=1;startSize=20;horizontalStack=0;resizeParent=1;resizeParentMax=0;resizeLast=0;collapsible=1;marginBottom=0;whiteSpace=wrap;html=1;" vertex="1" parent="WIyWlLk6GJQsqaUBKTNV-1">
          <mxGeometry x="50" y="380" width="210" height="60" as="geometry" />
        </mxCell>
        <mxCell id="6BlWa93xbq6rNMp9vf55-10" value="-serial_handler = SerialHandler()&lt;br&gt;&lt;font color=&quot;#ff9999&quot;&gt;-wifi_handler&lt;/font&gt;&lt;font color=&quot;#ff6666&quot;&gt; = WIFIHandler()&lt;/font&gt;" style="text;html=1;align=center;verticalAlign=middle;resizable=0;points=[];autosize=1;strokeColor=none;fillColor=none;" vertex="1" parent="6BlWa93xbq6rNMp9vf55-9">
          <mxGeometry y="20" width="210" height="40" as="geometry" />
        </mxCell>
        <mxCell id="6BlWa93xbq6rNMp9vf55-11" value="M5Telemetry" style="swimlane;fontStyle=0;childLayout=stackLayout;horizontal=1;startSize=30;horizontalStack=0;resizeParent=1;resizeParentMax=0;resizeLast=0;collapsible=1;marginBottom=0;whiteSpace=wrap;html=1;" vertex="1" parent="WIyWlLk6GJQsqaUBKTNV-1">
          <mxGeometry x="50" y="500" width="210" height="130" as="geometry" />
        </mxCell>
        <mxCell id="6BlWa93xbq6rNMp9vf55-16" value="-cmd_Handler = CommandHandler()&lt;br&gt;+fsr = Fsr()&lt;br&gt;+hru = HRU()&lt;br&gt;+tof = ToF()&lt;br&gt;+amg = Amg()&lt;br&gt;+imu = Imu()" style="text;html=1;strokeColor=none;fillColor=none;align=center;verticalAlign=middle;whiteSpace=wrap;rounded=0;" vertex="1" parent="6BlWa93xbq6rNMp9vf55-11">
          <mxGeometry y="30" width="210" height="100" as="geometry" />
        </mxCell>
        <mxCell id="6BlWa93xbq6rNMp9vf55-25" style="edgeStyle=none;rounded=0;orthogonalLoop=1;jettySize=auto;html=1;exitX=0;exitY=1;exitDx=0;exitDy=0;entryX=0.5;entryY=0;entryDx=0;entryDy=0;" edge="1" parent="WIyWlLk6GJQsqaUBKTNV-1" source="6BlWa93xbq6rNMp9vf55-18" target="6BlWa93xbq6rNMp9vf55-19">
          <mxGeometry relative="1" as="geometry" />
        </mxCell>
        <mxCell id="6BlWa93xbq6rNMp9vf55-26" style="edgeStyle=none;rounded=0;orthogonalLoop=1;jettySize=auto;html=1;exitX=0.25;exitY=1;exitDx=0;exitDy=0;entryX=0.5;entryY=0;entryDx=0;entryDy=0;" edge="1" parent="WIyWlLk6GJQsqaUBKTNV-1" source="6BlWa93xbq6rNMp9vf55-18" target="6BlWa93xbq6rNMp9vf55-21">
          <mxGeometry relative="1" as="geometry" />
        </mxCell>
        <mxCell id="6BlWa93xbq6rNMp9vf55-27" style="edgeStyle=none;rounded=0;orthogonalLoop=1;jettySize=auto;html=1;exitX=0.5;exitY=1;exitDx=0;exitDy=0;entryX=0.5;entryY=0;entryDx=0;entryDy=0;" edge="1" parent="WIyWlLk6GJQsqaUBKTNV-1" source="6BlWa93xbq6rNMp9vf55-18" target="6BlWa93xbq6rNMp9vf55-22">
          <mxGeometry relative="1" as="geometry" />
        </mxCell>
        <mxCell id="6BlWa93xbq6rNMp9vf55-28" style="edgeStyle=none;rounded=0;orthogonalLoop=1;jettySize=auto;html=1;exitX=0.75;exitY=1;exitDx=0;exitDy=0;entryX=0.5;entryY=0;entryDx=0;entryDy=0;" edge="1" parent="WIyWlLk6GJQsqaUBKTNV-1" source="6BlWa93xbq6rNMp9vf55-18" target="6BlWa93xbq6rNMp9vf55-23">
          <mxGeometry relative="1" as="geometry" />
        </mxCell>
        <mxCell id="6BlWa93xbq6rNMp9vf55-29" style="edgeStyle=none;rounded=0;orthogonalLoop=1;jettySize=auto;html=1;exitX=1;exitY=1;exitDx=0;exitDy=0;entryX=0.5;entryY=0;entryDx=0;entryDy=0;" edge="1" parent="WIyWlLk6GJQsqaUBKTNV-1" source="6BlWa93xbq6rNMp9vf55-18" target="6BlWa93xbq6rNMp9vf55-24">
          <mxGeometry relative="1" as="geometry" />
        </mxCell>
        <mxCell id="6BlWa93xbq6rNMp9vf55-18" value="DeviceAbs" style="swimlane;fontStyle=0;childLayout=stackLayout;horizontal=1;startSize=20;horizontalStack=0;resizeParent=1;resizeParentMax=0;resizeLast=0;collapsible=1;marginBottom=0;whiteSpace=wrap;html=1;" vertex="1" parent="WIyWlLk6GJQsqaUBKTNV-1">
          <mxGeometry x="560" y="310" width="140" height="60" as="geometry" />
        </mxCell>
        <mxCell id="6BlWa93xbq6rNMp9vf55-19" value="Fsr" style="swimlane;fontStyle=0;childLayout=stackLayout;horizontal=1;startSize=20;horizontalStack=0;resizeParent=1;resizeParentMax=0;resizeLast=0;collapsible=1;marginBottom=0;whiteSpace=wrap;html=1;" vertex="1" parent="WIyWlLk6GJQsqaUBKTNV-1">
          <mxGeometry x="400" y="420" width="70" height="60" as="geometry" />
        </mxCell>
        <mxCell id="6BlWa93xbq6rNMp9vf55-21" value="HRU" style="swimlane;fontStyle=0;childLayout=stackLayout;horizontal=1;startSize=20;horizontalStack=0;resizeParent=1;resizeParentMax=0;resizeLast=0;collapsible=1;marginBottom=0;whiteSpace=wrap;html=1;" vertex="1" parent="WIyWlLk6GJQsqaUBKTNV-1">
          <mxGeometry x="490" y="420" width="70" height="60" as="geometry" />
        </mxCell>
        <mxCell id="6BlWa93xbq6rNMp9vf55-22" value="ToF" style="swimlane;fontStyle=0;childLayout=stackLayout;horizontal=1;startSize=20;horizontalStack=0;resizeParent=1;resizeParentMax=0;resizeLast=0;collapsible=1;marginBottom=0;whiteSpace=wrap;html=1;" vertex="1" parent="WIyWlLk6GJQsqaUBKTNV-1">
          <mxGeometry x="580" y="420" width="70" height="60" as="geometry" />
        </mxCell>
        <mxCell id="6BlWa93xbq6rNMp9vf55-23" value="Amg" style="swimlane;fontStyle=0;childLayout=stackLayout;horizontal=1;startSize=20;horizontalStack=0;resizeParent=1;resizeParentMax=0;resizeLast=0;collapsible=1;marginBottom=0;whiteSpace=wrap;html=1;" vertex="1" parent="WIyWlLk6GJQsqaUBKTNV-1">
          <mxGeometry x="670" y="420" width="70" height="60" as="geometry" />
        </mxCell>
        <mxCell id="6BlWa93xbq6rNMp9vf55-24" value="Imu" style="swimlane;fontStyle=0;childLayout=stackLayout;horizontal=1;startSize=20;horizontalStack=0;resizeParent=1;resizeParentMax=0;resizeLast=0;collapsible=1;marginBottom=0;whiteSpace=wrap;html=1;" vertex="1" parent="WIyWlLk6GJQsqaUBKTNV-1">
          <mxGeometry x="760" y="420" width="70" height="60" as="geometry" />
        </mxCell>
      </root>
    </mxGraphModel>
  </diagram>
</mxfile>
